<svg xmlns="http://www.w3.org/2000/svg" xmlns:xlink="http://www.w3.org/1999/xlink" width="203.959" height="71.869" viewBox="0 0 203.959 71.869">
  <defs>
    <filter id="Path_21" x="170.256" y="0" width="33.703" height="33.413" filterUnits="userSpaceOnUse">
      <feOffset input="SourceAlpha"/>
      <feGaussianBlur stdDeviation="4" result="blur"/>
      <feFlood flood-color="#fff" flood-opacity="0.651"/>
      <feComposite operator="in" in2="blur"/>
      <feComposite in="SourceGraphic"/>
    </filter>
    <filter id="Path_33" x="173.402" y="2.168" width="27.823" height="29.274" filterUnits="userSpaceOnUse">
      <feOffset input="SourceAlpha"/>
      <feGaussianBlur stdDeviation="4" result="blur-2"/>
      <feFlood flood-color="#fff" flood-opacity="0.651"/>
      <feComposite operator="in" in2="blur-2"/>
      <feComposite in="SourceGraphic"/>
    </filter>
  </defs>
  <g id="Group_16025" data-name="Group 16025" transform="translate(-118 -412.1)">
    <path id="Path_1" data-name="Path 1" d="M68.035,319.974c.39-2.046.789-4.09,1.166-6.138.2-1.1.366-2.207.525-3.174,1.83.8,3.583,1.652,5.4,2.317a8.4,8.4,0,0,0,2.627.278c.976.024,1.918-.374,1.978-1.39a3.829,3.829,0,0,0-.731-2.5,6.948,6.948,0,0,0-2.483-1.539c-10.185-4.616-9.219-17.465-4.1-22.937,3.2-3.417,7.263-3.832,11.558-2.722,3.994,1.032,4,1.121,3.48,5.1-.281,2.13-.627,4.251-.98,6.623a10,10,0,0,0-1.371-.7,41.537,41.537,0,0,0-4.657-1.378,1.87,1.87,0,0,0-2.233,1.308,2.287,2.287,0,0,0,.843,2.754,23.821,23.821,0,0,0,2.891,1.73c4.789,2.36,7.032,6.319,7.157,11.511a23.141,23.141,0,0,1-.518,5.56c-1.575,7.04-7.234,9.866-13.955,8.691-2.279-.4-4.4-1.675-6.6-2.55Z" transform="translate(49.965 160.223)" fill="#fff"/>
    <path id="Path_3" data-name="Path 3" d="M491.546,294.979h-8.374c-.148-1.573-.29-3.1-.449-4.793-.615.953-1.1,1.823-1.7,2.612a7.483,7.483,0,0,1-11.443,1,17.765,17.765,0,0,1-4.9-9.449,37.641,37.641,0,0,1,.951-21.419,21.557,21.557,0,0,1,3.148-5.581c3.125-4.115,9.532-4.945,13.028.083V236.975h9.741Zm-9.579-19.72c-.119-2.279-.126-3.876-.3-5.453-.275-2.443-1.766-4.333-3.4-4.495-1.759-.174-3.243,1.2-4.015,3.835a18.9,18.9,0,0,0-.311,9.975,11.334,11.334,0,0,0,1.715,3.91,2.815,2.815,0,0,0,4.754-.184,5.4,5.4,0,0,0,.97-2.142C481.687,278.681,481.828,276.63,481.967,275.259Z" transform="translate(-195.532 187.936)" fill="#fff"/>
    <path id="Path_4" data-name="Path 4" d="M216.138,322.735h-9.781V282.694h8.177c.148,1.476.3,2.963.478,4.757.751-1.06,1.265-1.832,1.826-2.568a7.633,7.633,0,0,1,13.007.984,17.667,17.667,0,0,1,2.337,8.016c.286,9.558.349,19.124.5,28.8h-9.924v-1.448c0-7.086.033-14.172-.029-21.258a16.49,16.49,0,0,0-.646-4.138,2.655,2.655,0,0,0-2.449-2.2,2.589,2.589,0,0,0-2.644,1.931,10.062,10.062,0,0,0-.782,3.229c-.078,7.367-.057,14.734-.068,22.1C216.137,321.463,216.138,322.02,216.138,322.735Z" transform="translate(-35.887 160.179)" fill="#fff"/>
    <path id="Path_5" data-name="Path 5" d="M331.357,302.794c.028-4.867.7-9.6,3.026-13.965a12.752,12.752,0,0,1,8.156-6.83c5.1-1.327,9.675.446,12.8,4.836a22.388,22.388,0,0,1,3.762,10.159,35.323,35.323,0,0,1-1.33,16.362,16.612,16.612,0,0,1-4.3,6.99c-5.569,5.194-13.677,4.269-18.092-2.051-2.836-4.06-3.75-8.706-4.024-13.532C331.325,304.109,331.357,303.45,331.357,302.794Zm18.416-.329c-.483-2.507-.92-5.266-1.576-7.972a2.855,2.855,0,0,0-2.618-2.421c-1.552-.04-2.378,1.115-2.985,2.4a3.476,3.476,0,0,0-.209.52,27.173,27.173,0,0,0-.027,15.231c.426,1.493,1.253,2.987,3.134,2.965,1.9-.022,2.647-1.58,3-3.077C349.058,307.715,349.324,305.248,349.773,302.465Z" transform="translate(-113.462 160.259)" fill="#fff"/>
    <path id="Path_6" data-name="Path 6" d="M143.5,295.274c-.242-2.353-1.231-3.324-3.284-3.519a11.287,11.287,0,0,0-7.287,2.075c-.345.22-.682.452-1.136.754-.519-2.872-1.047-5.605-1.473-8.354a1.722,1.722,0,0,1,.511-1.41,16.279,16.279,0,0,1,13.881-2.648c4.326,1.125,6.5,4.521,7.417,8.582a48.491,48.491,0,0,1,1.107,9.294c.176,6.09.058,12.189.1,18.284.009,1.4.154,2.8.244,4.308h-8.658c-.177-.961-.364-1.979-.6-3.246-.448.593-.714.966-1,1.322a7.617,7.617,0,0,1-12.476-.477c-2.522-3.731-2.9-7.932-2.377-12.259.437-3.631,1.706-6.889,4.616-9.319a14.108,14.108,0,0,1,7.966-3.15C141.832,295.435,142.616,295.358,143.5,295.274Zm.441,9.233c-4.329-.172-6.6,2.194-6.1,6.044.16,1.226.558,2.392,2,2.742s2.312-.459,3.021-1.511a3.586,3.586,0,0,0,.663-1.523C143.716,308.375,143.8,306.48,143.938,304.506Z" transform="translate(12.583 160.23)" fill="#fff"/>
    <path id="Path_7" data-name="Path 7" d="M295.255,293.562h-9.712V264.324h-3.171V253.447h2.95c.239-2.342.345-4.577.716-6.767.642-3.786,1.784-7.389,4.912-9.967,2.787-2.3,5.969-2.488,9.28-1.487a1.7,1.7,0,0,1,.845,1.306c.072,3.32.039,6.642.039,10.11-1.878-.172-3.6-.808-4.8.789-1.313,1.742-1.177,3.765-1.056,5.91h4.729v2.867c0,2.158-.088,4.321.032,6.472.076,1.365-.439,1.717-1.685,1.6-.968-.089-1.95-.018-3.077-.018Z" transform="translate(-83.067 189.378)" fill="#fff"/>
    <path id="Path_8" data-name="Path 8" d="M432.1,295.781c-5-1.042-7.711,1.1-7.741,5.961-.04,6.472-.011,12.944-.011,19.417v1.591h-9.77V282.714h8c.14,2.154.281,4.329.452,6.945a15.822,15.822,0,0,1,.839-2.179,31.359,31.359,0,0,1,2.708-4.2,4.962,4.962,0,0,1,4.768-1.445,1.094,1.094,0,0,1,.719.771C432.116,286.956,432.1,291.308,432.1,295.781Z" transform="translate(-165.124 160.146)" fill="#fff"/>
    <g transform="matrix(1, 0, 0, 1, 118, 412.1)" filter="url(#Path_21)">
      <path id="Path_21-2" data-name="Path 21" d="M553.327,234.838a4.635,4.635,0,0,1,4.873,4.713,4.854,4.854,0,0,1-9.7.035A4.655,4.655,0,0,1,553.327,234.838Zm3.664,4.646a3.686,3.686,0,0,0-3.655-3.785,3.78,3.78,0,0,0-3.686,3.8,3.881,3.881,0,0,0,3.779,3.882A3.692,3.692,0,0,0,556.991,239.484Z" transform="translate(-366.24 -222.84)" fill="#fff"/>
    </g>
    <g transform="matrix(1, 0, 0, 1, 118, 412.1)" filter="url(#Path_33)">
      <path id="Path_33-2" data-name="Path 33" d="M560.271,245.826l-1.935-2.333c-1.1.634.149,2.209-1.545,2.212v-5.152a13.2,13.2,0,0,1,2.782.221,2.082,2.082,0,0,1,.919,1.268c-1.074,1.227.132,2.33.121,3.472Zm-2.53-2.7,1.735-1-1.613-1.156C557.816,241.818,557.794,242.2,557.741,243.125Z" transform="translate(-371.39 -226.39)" fill="#fff"/>
    </g>
  </g>
</svg>
