<?xml version="1.0" encoding="UTF-8" standalone="no"?>
<svg
   width="269"
   height="56"
   viewBox="0 0 269 56"
   fill="none"
   version="1.1"
   id="svg36"
   sodipodi:docname="logo-1-dark.svg"
   inkscape:version="1.1.1 (3bf5ae0d25, 2021-09-20)"
   xmlns:inkscape="http://www.inkscape.org/namespaces/inkscape"
   xmlns:sodipodi="http://sodipodi.sourceforge.net/DTD/sodipodi-0.dtd"
   xmlns="http://www.w3.org/2000/svg"
   xmlns:svg="http://www.w3.org/2000/svg">
  <sodipodi:namedview
     id="namedview38"
     pagecolor="#ffffff"
     bordercolor="#666666"
     borderopacity="1.0"
     inkscape:pageshadow="2"
     inkscape:pageopacity="0.0"
     inkscape:pagecheckerboard="0"
     showgrid="false"
     inkscape:zoom="1.2434944"
     inkscape:cx="133.89686"
     inkscape:cy="79.212257"
     inkscape:window-width="1870"
     inkscape:window-height="1016"
     inkscape:window-x="50"
     inkscape:window-y="27"
     inkscape:window-maximized="1"
     inkscape:current-layer="svg36" />
  <defs
     id="defs34">
    <filter
       id="filter0_i"
       x="24.9083"
       y="0"
       width="22.1854"
       height="55.3535"
       filterUnits="userSpaceOnUse"
       color-interpolation-filters="sRGB">
      <feFlood
         flood-opacity="0"
         result="BackgroundImageFix"
         id="feFlood14" />
      <feBlend
         mode="normal"
         in="SourceGraphic"
         in2="BackgroundImageFix"
         result="shape"
         id="feBlend16" />
      <feColorMatrix
         in="SourceAlpha"
         type="matrix"
         values="0 0 0 0 0 0 0 0 0 0 0 0 0 0 0 0 0 0 127 0"
         result="hardAlpha"
         id="feColorMatrix18" />
      <feOffset
         dx="-4"
         dy="3"
         id="feOffset20" />
      <feComposite
         in2="hardAlpha"
         operator="arithmetic"
         k2="-1"
         k3="1"
         id="feComposite22" />
      <feColorMatrix
         type="matrix"
         values="0 0 0 0 0.904167 0 0 0 0 0.892865 0 0 0 0 0.892865 0 0 0 0.4 0"
         id="feColorMatrix24" />
      <feBlend
         mode="normal"
         in2="shape"
         result="effect1_innerShadow"
         id="feBlend26" />
    </filter>
    <linearGradient
       id="paint0_linear"
       x1="29"
       y1="24.5"
       x2="49"
       y2="30.5"
       gradientUnits="userSpaceOnUse">
      <stop
         stop-opacity="0.2"
         id="stop29" />
      <stop
         offset="0.911458"
         stop-color="white"
         stop-opacity="0"
         id="stop31" />
    </linearGradient>
    <filter
       id="Path_21"
       x="170.256"
       y="0"
       width="33.703"
       height="33.413"
       filterUnits="userSpaceOnUse">
      <feOffset
         input="SourceAlpha"
         id="feOffset935" />
      <feGaussianBlur
         stdDeviation="4"
         result="blur"
         id="feGaussianBlur937" />
      <feFlood
         flood-color="#fff"
         flood-opacity="0.651"
         id="feFlood939" />
      <feComposite
         operator="in"
         in2="blur"
         id="feComposite941"
         result="result1" />
      <feComposite
         in="SourceGraphic"
         in2="result1"
         id="feComposite943" />
    </filter>
    <filter
       id="Path_33"
       x="173.402"
       y="2.168"
       width="27.823"
       height="29.274"
       filterUnits="userSpaceOnUse">
      <feOffset
         input="SourceAlpha"
         id="feOffset946" />
      <feGaussianBlur
         stdDeviation="4"
         result="blur-2"
         id="feGaussianBlur948" />
      <feFlood
         flood-color="#fff"
         flood-opacity="0.651"
         id="feFlood950" />
      <feComposite
         operator="in"
         in2="blur-2"
         id="feComposite952"
         result="result1" />
      <feComposite
         in="SourceGraphic"
         in2="result1"
         id="feComposite954" />
    </filter>
  </defs>
  <g
     id="Group_16025"
     data-name="Group 16025"
     transform="matrix(0.79040175,0,0,0.79040175,-31.735086,-328.57427)"
     style="fill:#ffffff;fill-opacity:1">
    <path
       id="Path_1"
       data-name="Path 1"
       d="m 68.035,319.974 c 0.39,-2.046 0.789,-4.09 1.166,-6.138 0.2,-1.1 0.366,-2.207 0.525,-3.174 1.83,0.8 3.583,1.652 5.4,2.317 a 8.4,8.4 0 0 0 2.627,0.278 c 0.976,0.024 1.918,-0.374 1.978,-1.39 a 3.829,3.829 0 0 0 -0.731,-2.5 6.948,6.948 0 0 0 -2.483,-1.539 c -10.185,-4.616 -9.219,-17.465 -4.1,-22.937 3.2,-3.417 7.263,-3.832 11.558,-2.722 3.994,1.032 4,1.121 3.48,5.1 -0.281,2.13 -0.627,4.251 -0.98,6.623 a 10,10 0 0 0 -1.371,-0.7 41.537,41.537 0 0 0 -4.657,-1.378 1.87,1.87 0 0 0 -2.233,1.308 2.287,2.287 0 0 0 0.843,2.754 23.821,23.821 0 0 0 2.891,1.73 c 4.789,2.36 7.032,6.319 7.157,11.511 a 23.141,23.141 0 0 1 -0.518,5.56 c -1.575,7.04 -7.234,9.866 -13.955,8.691 -2.279,-0.4 -4.4,-1.675 -6.6,-2.55 z"
       transform="translate(49.965,160.223)"
       fill="#ffffff"
       style="fill:#ffffff;fill-opacity:1" />
    <path
       id="Path_3"
       data-name="Path 3"
       d="m 491.546,294.979 h -8.374 c -0.148,-1.573 -0.29,-3.1 -0.449,-4.793 -0.615,0.953 -1.1,1.823 -1.7,2.612 a 7.483,7.483 0 0 1 -11.443,1 17.765,17.765 0 0 1 -4.9,-9.449 37.641,37.641 0 0 1 0.951,-21.419 21.557,21.557 0 0 1 3.148,-5.581 c 3.125,-4.115 9.532,-4.945 13.028,0.083 v -20.457 h 9.741 z m -9.579,-19.72 c -0.119,-2.279 -0.126,-3.876 -0.3,-5.453 -0.275,-2.443 -1.766,-4.333 -3.4,-4.495 -1.759,-0.174 -3.243,1.2 -4.015,3.835 a 18.9,18.9 0 0 0 -0.311,9.975 11.334,11.334 0 0 0 1.715,3.91 2.815,2.815 0 0 0 4.754,-0.184 5.4,5.4 0 0 0 0.97,-2.142 c 0.307,-2.024 0.448,-4.075 0.587,-5.446 z"
       transform="translate(-195.532,187.936)"
       fill="#ffffff"
       style="fill:#ffffff;fill-opacity:1" />
    <path
       id="Path_4"
       data-name="Path 4"
       d="m 216.138,322.735 h -9.781 v -40.041 h 8.177 c 0.148,1.476 0.3,2.963 0.478,4.757 0.751,-1.06 1.265,-1.832 1.826,-2.568 a 7.633,7.633 0 0 1 13.007,0.984 17.667,17.667 0 0 1 2.337,8.016 c 0.286,9.558 0.349,19.124 0.5,28.8 h -9.924 v -1.448 c 0,-7.086 0.033,-14.172 -0.029,-21.258 a 16.49,16.49 0 0 0 -0.646,-4.138 2.655,2.655 0 0 0 -2.449,-2.2 2.589,2.589 0 0 0 -2.644,1.931 10.062,10.062 0 0 0 -0.782,3.229 c -0.078,7.367 -0.057,14.734 -0.068,22.1 -0.003,0.564 -0.002,1.121 -0.002,1.836 z"
       transform="translate(-35.887,160.179)"
       fill="#ffffff"
       style="fill:#ffffff;fill-opacity:1" />
    <path
       id="Path_5"
       data-name="Path 5"
       d="m 331.357,302.794 c 0.028,-4.867 0.7,-9.6 3.026,-13.965 a 12.752,12.752 0 0 1 8.156,-6.83 c 5.1,-1.327 9.675,0.446 12.8,4.836 a 22.388,22.388 0 0 1 3.762,10.159 35.323,35.323 0 0 1 -1.33,16.362 16.612,16.612 0 0 1 -4.3,6.99 c -5.569,5.194 -13.677,4.269 -18.092,-2.051 -2.836,-4.06 -3.75,-8.706 -4.024,-13.532 -0.03,-0.654 0.002,-1.313 0.002,-1.969 z m 18.416,-0.329 c -0.483,-2.507 -0.92,-5.266 -1.576,-7.972 a 2.855,2.855 0 0 0 -2.618,-2.421 c -1.552,-0.04 -2.378,1.115 -2.985,2.4 a 3.476,3.476 0 0 0 -0.209,0.52 27.173,27.173 0 0 0 -0.027,15.231 c 0.426,1.493 1.253,2.987 3.134,2.965 1.9,-0.022 2.647,-1.58 3,-3.077 0.566,-2.396 0.832,-4.863 1.281,-7.646 z"
       transform="translate(-113.462,160.259)"
       fill="#ffffff"
       style="fill:#ffffff;fill-opacity:1" />
    <path
       id="Path_6"
       data-name="Path 6"
       d="m 143.5,295.274 c -0.242,-2.353 -1.231,-3.324 -3.284,-3.519 a 11.287,11.287 0 0 0 -7.287,2.075 c -0.345,0.22 -0.682,0.452 -1.136,0.754 -0.519,-2.872 -1.047,-5.605 -1.473,-8.354 a 1.722,1.722 0 0 1 0.511,-1.41 16.279,16.279 0 0 1 13.881,-2.648 c 4.326,1.125 6.5,4.521 7.417,8.582 a 48.491,48.491 0 0 1 1.107,9.294 c 0.176,6.09 0.058,12.189 0.1,18.284 0.009,1.4 0.154,2.8 0.244,4.308 h -8.658 c -0.177,-0.961 -0.364,-1.979 -0.6,-3.246 -0.448,0.593 -0.714,0.966 -1,1.322 a 7.617,7.617 0 0 1 -12.476,-0.477 c -2.522,-3.731 -2.9,-7.932 -2.377,-12.259 0.437,-3.631 1.706,-6.889 4.616,-9.319 a 14.108,14.108 0 0 1 7.966,-3.15 c 0.781,-0.076 1.565,-0.153 2.449,-0.237 z m 0.441,9.233 c -4.329,-0.172 -6.6,2.194 -6.1,6.044 0.16,1.226 0.558,2.392 2,2.742 1.442,0.35 2.312,-0.459 3.021,-1.511 a 3.586,3.586 0 0 0 0.663,-1.523 c 0.191,-1.884 0.275,-3.779 0.413,-5.753 z"
       transform="translate(12.583,160.23)"
       fill="#ffffff"
       style="fill:#ffffff;fill-opacity:1" />
    <path
       id="Path_7"
       data-name="Path 7"
       d="m 295.255,293.562 h -9.712 v -29.238 h -3.171 v -10.877 h 2.95 c 0.239,-2.342 0.345,-4.577 0.716,-6.767 0.642,-3.786 1.784,-7.389 4.912,-9.967 2.787,-2.3 5.969,-2.488 9.28,-1.487 a 1.7,1.7 0 0 1 0.845,1.306 c 0.072,3.32 0.039,6.642 0.039,10.11 -1.878,-0.172 -3.6,-0.808 -4.8,0.789 -1.313,1.742 -1.177,3.765 -1.056,5.91 h 4.729 v 2.867 c 0,2.158 -0.088,4.321 0.032,6.472 0.076,1.365 -0.439,1.717 -1.685,1.6 -0.968,-0.089 -1.95,-0.018 -3.077,-0.018 z"
       transform="translate(-83.067,189.378)"
       fill="#ffffff"
       style="fill:#ffffff;fill-opacity:1" />
    <path
       id="Path_8"
       data-name="Path 8"
       d="m 432.1,295.781 c -5,-1.042 -7.711,1.1 -7.741,5.961 -0.04,6.472 -0.011,12.944 -0.011,19.417 v 1.591 h -9.77 v -40.036 h 8 c 0.14,2.154 0.281,4.329 0.452,6.945 a 15.822,15.822 0 0 1 0.839,-2.179 31.359,31.359 0 0 1 2.708,-4.2 4.962,4.962 0 0 1 4.768,-1.445 1.094,1.094 0 0 1 0.719,0.771 c 0.052,4.35 0.036,8.702 0.036,13.175 z"
       transform="translate(-165.124,160.146)"
       fill="#ffffff"
       style="fill:#ffffff;fill-opacity:1" />
    <g
       transform="translate(118,412.1)"
       filter="url(#Path_21)"
       id="g967"
       style="fill:#ffffff;fill-opacity:1">
      <path
         id="Path_21-2"
         data-name="Path 21"
         d="m 553.327,234.838 a 4.635,4.635 0 0 1 4.873,4.713 4.854,4.854 0 0 1 -9.7,0.035 4.655,4.655 0 0 1 4.827,-4.748 z m 3.664,4.646 a 3.686,3.686 0 0 0 -3.655,-3.785 3.78,3.78 0 0 0 -3.686,3.8 3.881,3.881 0 0 0 3.779,3.882 3.692,3.692 0 0 0 3.562,-3.897 z"
         transform="translate(-366.24,-222.84)"
         fill="#ffffff"
         style="fill:#ffffff;fill-opacity:1" />
    </g>
    <g
       transform="translate(118,412.1)"
       filter="url(#Path_33)"
       id="g970"
       style="fill:#ffffff;fill-opacity:1">
      <path
         id="Path_33-2"
         data-name="Path 33"
         d="m 560.271,245.826 -1.935,-2.333 c -1.1,0.634 0.149,2.209 -1.545,2.212 v -5.152 a 13.2,13.2 0 0 1 2.782,0.221 2.082,2.082 0 0 1 0.919,1.268 c -1.074,1.227 0.132,2.33 0.121,3.472 z m -2.53,-2.7 1.735,-1 -1.613,-1.156 c -0.047,0.848 -0.069,1.23 -0.122,2.155 z"
         transform="translate(-371.39,-226.39)"
         fill="#ffffff"
         style="fill:#ffffff;fill-opacity:1" />
    </g>
  </g>
</svg>
